<?xml version="1.0" standalone="no"?>
<!DOCTYPE svg PUBLIC "-//W3C//DTD SVG 20010904//EN"
 "http://www.w3.org/TR/2001/REC-SVG-20010904/DTD/svg10.dtd">
<svg version="1.0" xmlns="http://www.w3.org/2000/svg"
 width="192.000000pt" height="192.000000pt" viewBox="0 0 192.000000 192.000000"
 preserveAspectRatio="xMidYMid meet">

<g transform="translate(0.000000,192.000000) scale(0.100000,-0.100000)"
fill="#000000" stroke="none">
<path d="M300 1904 c-144 -39 -247 -145 -285 -291 -14 -53 -15 -143 -13 -680
3 -616 3 -618 26 -673 33 -81 85 -146 152 -189 104 -68 86 -66 790 -66 l635 0
55 23 c117 48 208 146 241 259 21 71 21 1275 0 1346 -33 113 -124 211 -241
259 -55 23 -56 23 -680 25 -527 2 -634 0 -680 -13z m1280 -394 c0 -5 -4 -10
-10 -10 -5 0 -10 -9 -10 -20 0 -28 29 -38 45 -16 11 14 13 15 19 1 13 -34 -25
-85 -63 -85 -69 0 -98 77 -45 119 28 22 64 28 64 11z m-108 -165 c4 -16 19
-83 33 -147 33 -156 26 -174 -77 -197 -86 -20 -94 -11 -131 159 l-24 105 21 7
c59 18 61 15 80 -91 21 -119 33 -140 70 -123 34 15 33 34 -4 187 -15 66 -26
123 -23 128 12 19 47 1 55 -28z m-278 -39 c25 -10 37 -24 46 -51 13 -40 7 -85
-13 -85 -6 0 0 -10 15 -23 22 -18 32 -41 52 -127 13 -58 22 -108 20 -112 -6
-9 -64 -11 -64 -3 0 2 -9 48 -21 102 -22 102 -36 125 -70 116 -19 -5 -20 -11
-13 -52 12 -78 11 -83 -19 -94 -16 -5 -30 -7 -33 -4 -3 3 -54 250 -54 263 0 1
-9 4 -20 7 -11 3 -20 14 -20 24 0 16 11 22 53 31 54 12 87 19 100 21 4 0 23
-5 41 -13z m-201 -75 c32 -39 64 -192 48 -234 -13 -34 -64 -57 -128 -59 -39 0
-51 4 -69 26 -28 31 -42 79 -50 166 -7 74 3 91 73 116 63 22 98 18 126 -15z
m-421 -32 c3 -8 14 -8 43 0 57 16 110 14 126 -5 7 -8 15 -40 17 -71 3 -35 11
-62 23 -74 22 -22 35 -100 20 -127 -12 -22 -57 -39 -132 -48 l-45 -6 -24 136
-24 136 -39 0 c-33 0 -38 -3 -32 -17 4 -10 15 -43 25 -73 9 -30 26 -73 37 -95
26 -53 37 -105 20 -105 -6 0 -22 -3 -34 -6 -18 -5 -23 -1 -29 20 -6 27 -12 29
-54 17 -19 -5 -25 -14 -25 -36 0 -25 -4 -31 -27 -33 -25 -3 -27 0 -34 43 -3
26 -4 94 -2 151 4 96 3 104 -14 104 -13 0 -18 7 -18 25 0 14 3 25 8 25 4 1 48
11 97 25 106 28 112 28 117 14z m-376 -124 c7 -27 21 -89 30 -139 9 -50 20
-94 23 -98 3 -4 31 -1 63 7 56 13 56 13 61 -11 2 -14 1 -26 -2 -28 -11 -7
-173 -47 -175 -44 -1 2 -17 71 -34 153 -18 83 -35 160 -38 172 -5 18 -1 25 17
32 36 14 42 9 55 -44z m1573 -236 c14 -68 20 -124 15 -128 -11 -11 -545 -113
-552 -106 -7 7 -52 239 -47 243 3 4 526 109 551 111 5 1 21 -53 33 -120z"/>
<path d="M1108 1265 c-3 -3 -2 -25 3 -48 4 -23 8 -46 9 -50 0 -5 10 -7 23 -5
26 4 34 39 18 81 -10 24 -38 36 -53 22z"/>
<path d="M886 1184 c-17 -16 -16 -26 14 -141 9 -38 14 -43 39 -43 55 0 59 24
25 148 -12 44 -18 52 -39 52 -13 0 -31 -7 -39 -16z"/>
<path d="M647 1163 c-2 -5 0 -27 5 -50 8 -36 13 -43 34 -43 21 0 24 4 24 38 0
21 -5 43 -12 50 -13 13 -45 16 -51 5z"/>
<path d="M426 1069 c-8 -44 -8 -147 2 -152 4 -2 22 0 40 5 27 7 32 13 26 26
-4 9 -18 46 -31 82 -13 36 -26 66 -27 68 -2 1 -6 -12 -10 -29z"/>
<path d="M675 1021 c-5 -10 9 -88 18 -97 9 -9 57 16 57 29 0 8 -5 28 -11 46
-8 23 -17 31 -34 31 -13 0 -26 -4 -30 -9z"/>
<path d="M1625 895 c-5 -2 -26 -6 -46 -9 -31 -6 -36 -9 -32 -30 4 -17 10 -22
23 -19 20 5 25 -6 36 -80 5 -37 10 -47 23 -45 13 3 16 16 13 76 -2 60 0 72 13
72 8 0 15 9 15 20 0 19 -17 24 -45 15z"/>
<path d="M1461 867 l-44 -10 7 -81 c4 -45 10 -84 14 -88 4 -3 31 -2 60 4 42 9
52 15 52 31 0 17 -5 19 -40 14 -49 -6 -57 18 -9 28 43 10 36 41 -9 37 -46 -5
-40 15 9 28 30 8 39 15 35 26 -3 9 -6 18 -6 20 0 6 -18 3 -69 -9z"/>
<path d="M1360 818 l-1 -33 -17 28 c-10 16 -25 27 -39 27 -26 0 -27 -5 -16
-112 5 -63 8 -68 30 -68 23 0 24 2 18 48 l-7 47 27 -42 c27 -45 32 -48 52 -35
10 6 10 25 1 90 -10 68 -15 82 -30 82 -14 0 -18 -8 -18 -32z"/>
</g>
</svg>
